<svg width="87" height="72" viewBox="0 0 87 72" fill="none" xmlns="http://www.w3.org/2000/svg">
<path d="M83.9565 28.4985C84.2077 28.6965 84.5131 28.7981 84.8211 28.7981C85.0285 28.7981 85.2369 28.7519 85.4306 28.6581C85.9119 28.4246 86.2175 27.9365 86.2175 27.4015V19.9529C86.2175 19.525 86.0214 19.1207 85.6853 18.8559L62.9487 0.942225C61.3541 -0.314168 59.1268 -0.313982 57.5322 0.942225L48.9745 7.6847V5.05571C48.9745 4.28441 48.3492 3.6591 47.5779 3.6591H41.619C40.8477 3.6591 40.2224 4.28441 40.2224 5.05571V14.5804L34.7958 18.8559C34.4596 19.1207 34.2636 19.525 34.2636 19.9529V27.4015C34.2636 27.9365 34.5691 28.4246 35.0505 28.6581C35.5317 28.8916 36.1043 28.8298 36.5246 28.4987L37.243 27.9326V41.5423L24.216 31.2787C22.6214 30.0223 20.3941 30.0223 18.7995 31.2787L0.532202 45.6709C0.196084 45.9355 0 46.34 0 46.7679V54.2165C0 54.7515 0.305579 55.2395 0.786944 55.473C0.980608 55.5671 1.18898 55.6131 1.39643 55.6131C1.70424 55.6131 2.00982 55.5114 2.26102 55.3135L2.97944 54.7474V69.2068H1.39661C0.62531 69.2068 0 69.8321 0 70.6034C0 71.3747 0.62531 72 1.39661 72H84.8209C85.5922 72 86.2175 71.3747 86.2175 70.6034C86.2175 69.8321 85.5922 69.2068 84.8209 69.2068H83.2381V27.9324L83.9565 28.4985ZM43.0157 6.45233H46.1813V9.88557L43.0157 12.3797V6.45233ZM37.0568 20.6305L59.2611 3.1364C59.8378 2.68203 60.6435 2.68203 61.2202 3.1364L83.4243 20.6305V24.523L61.105 6.93816C60.8515 6.73835 60.5461 6.63854 60.2405 6.63854C59.935 6.63854 59.6298 6.73835 59.3761 6.93816L37.0568 24.523V20.6305ZM2.79322 47.4455L20.5283 33.4725C21.105 33.0181 21.9108 33.0181 22.4875 33.4725L37.243 45.0981V48.9907L22.3722 37.2743C21.8652 36.8746 21.1505 36.8746 20.6436 37.2743L2.79322 51.3381V47.4455ZM5.77266 52.5467L21.5078 40.1494L37.243 52.5469V69.207H31.0979V52.7269C31.0979 51.9556 30.4726 51.3303 29.7013 51.3303H13.3144C12.5431 51.3303 11.9178 51.9556 11.9178 52.7269V69.207H5.77266V52.5467ZM14.711 60.0822H28.3047V63.2479H14.711V60.0822ZM28.3047 57.289H14.711V54.1234H28.3047V57.289ZM14.711 66.0411H28.3047V69.2068H14.711V66.0411ZM55.1196 58.7834C55.0887 58.7813 55.0576 58.7787 55.0265 58.7787C54.6597 58.7787 54.2984 58.9277 54.0396 59.1884C53.7789 59.4472 53.6299 59.8085 53.6299 60.1753C53.6299 60.5422 53.7789 60.9034 54.0396 61.1623C54.2984 61.423 54.6597 61.572 55.0265 61.572C55.0576 61.572 55.0887 61.5693 55.1196 61.5673V69.2068H48.9745V51.1439H55.1196V58.7834ZM80.4449 69.2068H57.9129V49.7473C57.9129 48.976 57.2875 48.3507 56.5162 48.3507H47.5779C46.8066 48.3507 46.1813 48.976 46.1813 49.7473V69.2068H40.0362V25.7317L60.2405 9.81313L80.4449 25.7317V69.2068Z" fill="black"/>
<path d="M63.9648 63.0616H72.9032C73.6745 63.0616 74.2998 62.4363 74.2998 61.665V49.7472C74.2998 48.9759 73.6745 48.3506 72.9032 48.3506H63.9648C63.1935 48.3506 62.5682 48.9759 62.5682 49.7472V61.665C62.5682 62.4363 63.1935 63.0616 63.9648 63.0616ZM65.3615 60.2683V55.613H71.5066V60.2683H65.3615ZM71.5066 51.1438V52.8197H65.3615V51.1438H71.5066Z" fill="black"/>
<path d="M63.9648 42.2056H72.9032C73.6745 42.2056 74.2998 41.5803 74.2998 40.809V28.8912C74.2998 28.1199 73.6745 27.4946 72.9032 27.4946H63.9648C63.1935 27.4946 62.5682 28.1199 62.5682 28.8912V40.809C62.5682 41.5803 63.1935 42.2056 63.9648 42.2056ZM65.3615 39.4124V34.757H71.5066V39.4124H65.3615ZM71.5066 30.2879V31.9638H65.3615V30.2879H71.5066Z" fill="black"/>
<path d="M56.5162 27.4946H47.5779C46.8066 27.4946 46.1813 28.1199 46.1813 28.8912V40.809C46.1813 41.5803 46.8066 42.2056 47.5779 42.2056H56.5162C57.2875 42.2056 57.9128 41.5803 57.9128 40.809V28.8912C57.9128 28.1199 57.2875 27.4946 56.5162 27.4946ZM55.1196 30.2879V31.9638H48.9745V30.2879H55.1196ZM48.9745 39.4124V34.757H55.1196V39.4124H48.9745Z" fill="black"/>
</svg>
