<svg width="81" height="72" viewBox="0 0 81 72" fill="none" xmlns="http://www.w3.org/2000/svg">
<path d="M75.1633 12.4967H72.0154L72.0184 6.86905C72.0203 3.09086 68.9485 0.015356 65.1696 0.0135133L41.2782 0C41.2769 0 41.2763 0 41.2751 0C39.9152 0 38.6363 0.529475 37.6744 1.49137L2.00672 37.1591C0.712519 38.4533 0 40.1738 0 42.0042C0 43.8346 0.712519 45.5551 2.00672 46.8493L25.1537 69.9963C26.4897 71.3323 28.2446 72 29.9989 72C31.7538 72 33.5086 71.3323 34.8446 69.9963L57.3012 47.5397C57.9155 46.9255 57.9155 45.9298 57.3012 45.3162C56.687 44.7019 55.6913 44.7019 55.0771 45.3162L32.6204 67.7728C31.1751 69.2181 28.8232 69.2181 27.3779 67.7728L4.23089 44.6258C3.53065 43.9255 3.14491 42.9944 3.14491 42.0042C3.14491 41.014 3.53065 40.0829 4.23089 39.3826L39.898 3.71554C40.2659 3.34761 40.7548 3.14491 41.2751 3.14491H41.2763L65.1678 3.15842C67.212 3.15904 68.8747 4.82363 68.8735 6.86782L68.8661 20.0445H61.7833C61.1734 20.0445 60.6212 19.7951 60.2219 19.3934C60.8798 19.1115 61.4965 18.7042 62.0327 18.168C64.2925 15.9076 64.2925 12.2307 62.0327 9.97096C59.7723 7.71056 56.0955 7.71056 53.8351 9.97096C51.5753 12.2307 51.5753 15.9076 53.8351 18.168C54.6729 19.0058 55.7061 19.5322 56.789 19.749C57.5586 21.7582 59.5064 23.1894 61.7833 23.1894H68.8643L68.86 30.7274C68.86 31.2476 68.6573 31.7359 68.2894 32.1033L63.9725 36.4208C63.3583 37.035 63.3583 38.0307 63.9725 38.6449C64.5861 39.2585 65.5818 39.2585 66.196 38.6449L70.5135 34.3274C71.4742 33.3661 72.0043 32.0885 72.0049 30.7292L72.0092 23.1894H75.1633C78.1111 23.1894 80.5097 20.7914 80.5097 17.8431C80.5097 14.8953 78.1111 12.4967 75.1633 12.4967ZM56.0592 12.1945C56.5764 11.6773 57.2552 11.4193 57.9345 11.4193C58.6133 11.4193 59.292 11.6779 59.8092 12.1945C59.9726 12.3585 60.1077 12.5397 60.2195 12.7307C58.4935 13.2596 57.1372 14.641 56.6415 16.3818C56.4333 16.2657 56.2361 16.1213 56.0592 15.9444C55.0255 14.9101 55.0255 13.2283 56.0592 12.1945ZM75.1633 20.0445H72.0111L72.0135 15.6416H75.1633C76.3771 15.6416 77.3648 16.6293 77.3648 17.8431C77.3648 19.0568 76.3771 20.0445 75.1633 20.0445Z" fill="black"/>
<path d="M25.3817 39.6737C25.5752 40.3697 26.2072 40.8248 26.8952 40.8248C27.0352 40.8248 27.1771 40.8064 27.3178 40.7671L43.46 36.2739C44.2966 36.0411 44.7861 35.1738 44.5533 34.3372C44.3205 33.5012 43.4539 33.0117 42.6166 33.2445L26.4744 37.737C25.6384 37.9704 25.1489 38.8371 25.3817 39.6737Z" fill="black"/>
<path d="M32.4871 41.7486C31.6112 42.6245 31.129 43.7885 31.129 45.0274C31.129 46.2657 31.6112 47.4297 32.4871 48.3056C33.3913 49.2092 34.578 49.6612 35.7653 49.6612C36.9526 49.6612 38.14 49.2092 39.0441 48.3056C40.8518 46.4979 40.8518 43.5563 39.0441 41.7486C37.2364 39.9409 34.2948 39.9409 32.4871 41.7486ZM36.82 46.0815C36.2383 46.6631 35.2923 46.6631 34.7107 46.0815C34.4287 45.8001 34.2739 45.4254 34.2739 45.0268C34.2739 44.6288 34.4293 44.2541 34.7107 43.9722C35.0018 43.6816 35.3839 43.536 35.7653 43.536C36.1474 43.536 36.5294 43.6816 36.82 43.9722C37.4016 44.5538 37.4016 45.5004 36.82 46.0815Z" fill="black"/>
<path d="M39.823 32.3863C41.6307 30.578 41.6307 27.637 39.823 25.8293C38.947 24.9534 37.7824 24.4712 36.5441 24.4712C35.3058 24.4712 34.1412 24.9534 33.2659 25.8293C31.4582 27.637 31.4582 30.578 33.2659 32.3863C34.1701 33.2898 35.3568 33.7419 36.5441 33.7419C37.7315 33.7419 38.9188 33.2898 39.823 32.3863ZM35.4895 28.0528C35.7714 27.7709 36.1461 27.6161 36.5441 27.6161C36.9428 27.6161 37.3175 27.7709 37.5988 28.0528C38.1805 28.6345 38.1805 29.5804 37.5988 30.1621C37.0177 30.7438 36.0712 30.7438 35.4895 30.1621C34.9084 29.5804 34.9084 28.6345 35.4895 28.0528Z" fill="black"/>
<path d="M15.6398 36.4245C15.0255 35.8102 14.0298 35.8102 13.4156 36.4245L8.94762 40.8925C8.65278 41.1873 8.48694 41.5872 8.48694 42.0042C8.48694 42.4213 8.65278 42.8212 8.94762 43.116L28.8877 63.0561C29.1942 63.3626 29.5971 63.5162 29.9995 63.5162C30.4018 63.5162 30.8041 63.3626 31.1112 63.0561L60.924 33.2427C61.5382 32.6285 61.5382 31.6328 60.924 31.0186L40.9845 11.0791C40.6897 10.7843 40.2898 10.6184 39.8728 10.6184C39.4557 10.6184 39.0558 10.7843 38.761 11.0791L22.311 27.5291C21.6968 28.1433 21.6968 29.139 22.311 29.7532C22.9247 30.3668 23.9203 30.3668 24.5346 29.7532L39.8728 14.415L57.5887 32.1309L29.9995 59.7201L12.2836 42.0042L15.6398 38.648C16.2534 38.0338 16.254 37.0387 15.6398 36.4245Z" fill="black"/>
<path d="M60.6372 40.408C60.2232 40.408 59.8178 40.5763 59.5254 40.8686C59.233 41.161 59.0647 41.567 59.0647 41.9804C59.0647 42.3938 59.233 42.7998 59.5254 43.0922C59.8178 43.3846 60.2232 43.5529 60.6372 43.5529C61.0505 43.5529 61.4559 43.3846 61.7489 43.0922C62.0413 42.7998 62.2096 42.3938 62.2096 41.9804C62.2096 41.567 62.0413 41.161 61.7489 40.8686C61.4559 40.5763 61.0505 40.408 60.6372 40.408Z" fill="black"/>
<path d="M20.0862 34.1996C20.3804 33.9072 20.5475 33.5031 20.5475 33.0878C20.5475 32.6745 20.3804 32.2703 20.0862 31.9761C19.7938 31.6837 19.3897 31.5154 18.975 31.5154C18.561 31.5154 18.1556 31.6837 17.8633 31.9761C17.5703 32.2684 17.4026 32.6745 17.4026 33.0878C17.4026 33.5031 17.5703 33.9072 17.8633 34.1996C18.1569 34.4938 18.561 34.6603 18.975 34.6603C19.3897 34.6603 19.7938 34.4938 20.0862 34.1996Z" fill="black"/>
</svg>
