<svg width="62" height="72" viewBox="0 0 62 72" fill="none" xmlns="http://www.w3.org/2000/svg">
<path d="M60.2878 12.4328C50.3815 9.71847 40.4169 5.49199 31.4714 0.21041C30.9962 -0.0701366 30.4066 -0.0701366 29.9315 0.21041C20.7279 5.64373 11.3019 9.64154 1.11431 12.4328C0.456186 12.6129 0 13.2112 0 13.8936V29.3688C0 45.3048 7.35172 55.8533 13.5192 61.8961C20.159 68.4021 27.8933 72 30.7015 72C33.5093 72 41.2437 68.4021 47.8834 61.8961C54.0508 55.8535 61.4021 45.3049 61.4021 29.3688V13.8935C61.4021 13.2112 60.9459 12.6129 60.2878 12.4328ZM58.373 29.3687C58.373 44.2528 51.516 54.0958 45.7633 59.7323C39.234 66.1301 32.253 68.9707 30.7015 68.9707C29.1499 68.9707 22.1685 66.1301 15.639 59.7323C9.88648 54.0957 3.0292 44.2528 3.0292 29.3687V15.0432C12.7714 12.2771 21.8442 8.41684 30.7017 3.26956C39.3381 8.2803 48.8636 12.3325 58.373 15.0427V29.3687Z" fill="black"/>
<path d="M17.2767 14.8737C16.9702 14.0953 16.0908 13.713 15.3123 14.0197C12.6067 15.0858 9.82965 16.067 7.05836 16.9364C6.42682 17.1347 5.99707 17.7197 5.99707 18.3814V24.2302C5.99707 25.0666 6.6753 25.7447 7.5116 25.7447C8.34789 25.7447 9.02612 25.0666 9.02612 24.2302V19.4883C11.5122 18.6839 13.9957 17.7942 16.4227 16.8378C17.2011 16.5314 17.5834 15.6521 17.2767 14.8737Z" fill="black"/>
<path d="M20.1537 15.1611C20.3569 15.1611 20.5632 15.1201 20.7611 15.0338L20.7889 15.0217C21.5552 14.6859 21.9003 13.7939 21.5645 13.0279C21.2284 12.2617 20.3313 11.915 19.5659 12.2505L19.5415 12.2611C18.7748 12.5959 18.4285 13.4872 18.7634 14.2536C19.0119 14.8226 19.5694 15.1611 20.1537 15.1611Z" fill="black"/>
<path d="M48.7463 48.8366C48.0464 48.3792 47.1079 48.5759 46.6499 49.2761C45.4018 51.1863 43.9376 53.0156 42.2974 54.7125C40.9485 56.1078 39.4869 57.4083 37.9531 58.5776C37.2881 59.0846 37.1601 60.035 37.667 60.7003C37.9653 61.0911 38.4163 61.2967 38.8725 61.2967C39.1928 61.2967 39.5156 61.1956 39.7898 60.9863C41.4442 59.7248 43.0206 58.3223 44.475 56.8179C46.2484 54.9836 47.8332 53.0036 49.1858 50.9329C49.6435 50.2326 49.4465 49.2941 48.7463 48.8366Z" fill="black"/>
<path d="M34.4358 60.9528L34.3488 61.004C33.625 61.4232 33.3777 62.3496 33.7968 63.0734C34.0776 63.5586 34.5859 63.8294 35.1089 63.8294C35.3663 63.8294 35.6275 63.7638 35.8662 63.6253L35.9664 63.5663C36.6883 63.1436 36.9307 62.2159 36.508 61.4941C36.085 60.7725 35.1572 60.5305 34.4358 60.9528Z" fill="black"/>
<path d="M20.3776 32.9089C19.4476 31.9788 18.2109 31.4669 16.8954 31.4669C15.58 31.4669 14.3431 31.9789 13.4127 32.9089C11.4928 34.8293 11.4928 37.9539 13.4127 39.8742L22.3559 48.8171C23.286 49.7469 24.5228 50.2589 25.8383 50.2589C27.1539 50.2589 28.3907 49.7469 29.3209 48.8168L47.9904 30.1472C49.9102 28.2264 49.9102 25.1021 47.9901 23.1824C47.06 22.2524 45.8232 21.7405 44.5075 21.7405C43.192 21.7405 41.9552 22.2525 41.025 23.1824L25.8382 38.3692L20.3776 32.9089ZM43.1669 25.3244C43.5248 24.9666 44.0011 24.7695 44.5077 24.7695C45.0145 24.7695 45.4903 24.9666 45.8485 25.3244C46.5875 26.0634 46.5875 27.2663 45.8482 28.0056L27.179 46.6749C26.8212 47.0328 26.3449 47.2298 25.8383 47.2298C25.3318 47.2298 24.8555 47.0328 24.4975 46.6749L15.5546 37.7323C14.8153 36.9931 14.8153 35.7901 15.5543 35.0512C15.9123 34.6933 16.3886 34.496 16.8953 34.496C17.402 34.496 17.878 34.693 18.2359 35.0509L24.7672 41.5823C25.0514 41.8663 25.4364 42.0259 25.8382 42.0259C26.24 42.0259 26.625 41.8664 26.9089 41.5823L43.1669 25.3244Z" fill="black"/>
</svg>
