<svg width="63" height="72" viewBox="0 0 63 72" fill="none" xmlns="http://www.w3.org/2000/svg">
<path d="M60.1207 12.4006L38.1401 0.498081C36.055 -0.631354 33.188 0.237442 32.0586 2.32255L19.2004 26.2144H3.56206C1.56383 26.2144 0 27.7783 0 29.7765V36.0318V68.4379C0 70.4362 1.56383 72 3.56206 72H53.5178C55.5161 72 57.0799 70.4362 57.0799 68.4379V59.4025H58.5569C59.3388 59.4025 59.9469 58.7943 59.9469 58.0124V47.6737C59.9469 46.8918 59.3388 46.2836 58.5569 46.2836H57.0799V36.1187C57.0799 34.468 55.8636 32.9911 54.2998 32.6435L61.9452 18.4822C63.0746 16.3102 62.2927 13.6169 60.1207 12.4006ZM44.4824 7.10093L30.7554 32.5567H26.8458L41.5285 5.5371L44.4824 7.10093ZM34.5781 3.62575C35.0125 2.84383 36.055 2.49631 36.837 2.93071L39.0089 4.14702L23.7181 32.5567H18.9398L34.5781 3.62575ZM2.69327 29.6896C2.69327 29.429 3.04079 28.9946 3.47518 28.9946H17.6366L15.7252 32.4698H3.47518C3.21455 32.4698 2.95391 32.4698 2.69327 32.5567V29.6896ZM54.2129 68.4379C54.2129 68.8723 53.8654 69.2198 53.431 69.2198H3.47518C3.04079 69.2198 2.69327 68.8723 2.69327 68.4379V36.1187C2.69327 35.6843 3.04079 35.3368 3.47518 35.3368H16.594H22.1543H32.3192H51.8671H53.3441C53.7785 35.3368 54.126 35.6843 54.126 36.1187V46.2836H48.8263C46.4806 46.2836 44.6561 48.195 44.6561 50.4539V55.2322C44.6561 57.578 46.5675 59.4025 48.8263 59.4025H54.2129V68.4379ZM56.993 49.0638H57.0799V56.6223H56.993H48.8263C48.0444 56.6223 47.4363 56.0141 47.4363 55.2322V50.4539C47.4363 49.6719 48.0444 49.0638 48.8263 49.0638H56.993ZM59.4257 17.0921L51.0852 32.5567H33.883L46.915 8.491L58.7306 14.9201C59.5994 15.2676 59.8601 16.3102 59.4257 17.0921Z" fill="black"/>
<path d="M54.126 15.7888L53.431 15.4413C51.6934 14.4856 49.3476 15.1807 48.3919 16.9182L47.5231 18.569C47.0887 19.4378 46.915 20.4803 47.2625 21.436C47.5231 22.3917 48.2182 23.1736 49.087 23.608L49.782 23.9555C50.3033 24.2161 50.9115 24.3899 51.5196 24.3899C52.9097 24.3899 54.126 23.608 54.821 22.4785L55.6898 20.8278C56.5586 19.0034 55.8636 16.7445 54.126 15.7888ZM53.1703 19.5246L52.3015 21.1753C52.0409 21.6097 51.4327 21.7835 50.9983 21.5229L50.3033 21.0885C50.1295 21.0016 49.9558 20.7409 49.8689 20.5672C49.782 20.3066 49.782 20.0459 49.9558 19.8722L50.8246 18.2214C50.9983 17.9608 51.3458 17.7002 51.6934 17.7002C51.8671 17.7002 51.954 17.7002 52.1278 17.787L52.8228 18.1346C53.1703 18.4821 53.3441 19.0034 53.1703 19.5246Z" fill="black"/>
</svg>
