<svg width="128" height="128" viewBox="0 0 128 128" fill="none" xmlns="http://www.w3.org/2000/svg">
<path d="M125.5 123H114.5V103.25C114.5 101.869 113.381 100.75 112 100.75C110.62 100.75 109.5 101.869 109.5 103.25V123H79.5004V75.5002C79.5004 74.1195 78.3809 73.0002 77.0004 73.0002H51.0003C49.6198 73.0002 48.5003 74.1195 48.5003 75.5002V123H18.5003V66.5H19.4623C20.1253 66.5 20.7611 66.2365 21.2301 65.7677L64.0004 22.9974L106.771 65.7677C107.24 66.2365 107.875 66.5 108.538 66.5H109.5V85.25C109.5 86.6307 110.62 87.75 112 87.75C113.381 87.75 114.5 86.6307 114.5 85.25V66.5H125.5C126.512 66.5 127.423 65.8907 127.81 64.9567C128.197 64.0227 127.983 62.9472 127.268 62.2322L65.7681 0.732188C64.7916 -0.244063 63.2091 -0.244063 62.2324 0.732188L38.7323 24.2322C37.7561 25.2085 37.7561 26.7915 38.7323 27.7677C39.7088 28.7442 41.2918 28.7442 42.2681 27.7677L64.0004 6.03544L119.465 61.5H109.574L65.7681 17.6942C64.7916 16.7179 63.2091 16.7179 62.2324 17.6942L18.4266 61.5H8.53583L28.2681 41.768C29.2443 40.7917 29.2443 39.2087 28.2681 38.2322C27.2918 37.2562 25.7088 37.256 24.7323 38.2322L0.732324 62.2322C0.017574 62.9472 -0.196676 64.0225 0.190324 64.9567C0.577324 65.891 1.48907 66.5 2.50033 66.5H13.5003V123H2.50033C1.11982 123 0.00032402 124.119 0.00032402 125.5C0.00032402 126.881 1.11982 128 2.50033 128H16.0003H51.0003H77.0004H112H125.5C126.881 128 128 126.881 128 125.5C128 124.119 126.881 123 125.5 123ZM74.5004 123H53.5004V78.0002H74.5004V123Z" fill="black"/>
<path d="M101.501 73H87.5007C86.1202 73 85.0007 74.1193 85.0007 75.5V100.5C85.0007 101.881 86.1202 103 87.5007 103H101.501C102.881 103 104.001 101.881 104.001 100.5V75.5C104.001 74.1193 102.881 73 101.501 73ZM99.0007 98H90.0007V78H99.0007V98Z" fill="black"/>
<path d="M40.5007 73H26.5007C25.1202 73 24.0007 74.1193 24.0007 75.5V100.5C24.0007 101.881 25.1202 103 26.5007 103H40.5007C41.8812 103 43.0007 101.881 43.0007 100.5V75.5C43.0007 74.1193 41.8812 73 40.5007 73ZM38.0007 98H29.0007V78H38.0007V98Z" fill="black"/>
<path d="M64.0007 41.0796C57.6597 41.0796 52.5007 46.2386 52.5007 52.5796C52.5007 58.9206 57.6597 64.0796 64.0007 64.0796C70.3417 64.0796 75.5007 58.9206 75.5007 52.5796C75.5007 46.2386 70.3417 41.0796 64.0007 41.0796ZM64.0007 59.0796C60.4165 59.0796 57.5007 56.1636 57.5007 52.5796C57.5007 48.9956 60.4165 46.0796 64.0007 46.0796C67.585 46.0796 70.5007 48.9956 70.5007 52.5796C70.5007 56.1636 67.585 59.0796 64.0007 59.0796Z" fill="black"/>
<path d="M61.018 98.7325C60.5532 98.2675 59.908 98 59.2507 98C58.5932 98 57.9482 98.2675 57.4832 98.7325C57.0182 99.1975 56.7507 99.8425 56.7507 100.5C56.7507 101.158 57.018 101.802 57.4832 102.267C57.9485 102.732 58.5932 103 59.2507 103C59.9082 103 60.5532 102.732 61.018 102.267C61.483 101.802 61.7507 101.158 61.7507 100.5C61.7507 99.8425 61.4832 99.1975 61.018 98.7325Z" fill="black"/>
<path d="M35.018 31.4825C34.5532 31.0175 33.9082 30.75 33.2507 30.75C32.5932 30.75 31.9482 31.0175 31.4832 31.4825C31.0182 31.9475 30.7507 32.5925 30.7507 33.25C30.7507 33.9075 31.018 34.5525 31.4832 35.0175C31.9485 35.4825 32.5932 35.75 33.2507 35.75C33.9082 35.75 34.5532 35.4825 35.018 35.0175C35.483 34.5525 35.7507 33.9075 35.7507 33.25C35.7507 32.5925 35.4832 31.9475 35.018 31.4825Z" fill="black"/>
<path d="M113.768 91.8145C113.303 91.3498 112.658 91.082 112.001 91.082C111.343 91.082 110.698 91.3495 110.233 91.8145C109.768 92.282 109.501 92.9245 109.501 93.582C109.501 94.2395 109.768 94.8845 110.233 95.352C110.698 95.817 111.343 96.082 112.001 96.082C112.658 96.082 113.303 95.817 113.768 95.352C114.233 94.8845 114.501 94.242 114.501 93.582C114.501 92.9245 114.233 92.2795 113.768 91.8145Z" fill="black"/>
</svg>
