<svg width="152" height="200" viewBox="0 0 152 200" fill="none" xmlns="http://www.w3.org/2000/svg">
<rect x="1" y="1" width="150" height="198" rx="19" stroke="black" stroke-width="2"/>
<rect x="21" y="21" width="110" height="158" rx="11" stroke="black" stroke-width="2"/>
<path d="M21 40H131" stroke="black"/>
<path d="M21 60H131" stroke="black"/>
<path d="M21 80H131" stroke="black"/>
<path d="M21 120H131" stroke="black"/>
<path d="M21 140H131" stroke="black"/>
<path d="M21 160H131" stroke="black"/>
<circle cx="34" cy="30" r="1.5" stroke="black"/>
<circle cx="118" cy="30" r="1.5" stroke="black"/>
<circle cx="34" cy="50" r="1.5" stroke="black"/>
<circle cx="118" cy="50" r="1.5" stroke="black"/>
<circle cx="34" cy="70" r="1.5" stroke="black"/>
<circle cx="118" cy="70" r="1.5" stroke="black"/>
<circle cx="34" cy="130" r="1.5" stroke="black"/>
<circle cx="118" cy="130" r="1.5" stroke="black"/>
<circle cx="34" cy="150" r="1.5" stroke="black"/>
<circle cx="118" cy="150" r="1.5" stroke="black"/>
<circle cx="34" cy="170" r="1.5" stroke="black"/>
<circle cx="118" cy="170" r="1.5" stroke="black"/>
</svg>
